<svg width="183" height="256" viewBox="0 0 183 256" fill="none" xmlns="http://www.w3.org/2000/svg">
<path d="M6.21759 122.761C13.7647 117.294 26.6933 120.035 34.6287 130.194C48.9942 123.548 67.8178 121.685 88.7527 121.373C111.922 121.373 132.137 123.586 146.767 131.179C154.711 120.78 168.531 117.248 176.142 122.761C183.899 128.379 184.005 142.428 176.142 153.292C174.196 155.981 171.921 158.204 169.482 159.945C170.9 165.672 171.532 172.208 171.288 179.659C169.901 221.985 136.609 255.985 89.4461 255.985C40.8961 254.597 6.21783 222.68 6.21759 181.741C6.21759 172.197 7.46434 164.138 9.79181 157.34C8.25765 155.969 6.81802 154.386 5.52325 152.597C-2.33911 141.734 -1.53881 128.379 6.21759 122.761Z" fill="#554234"/>
<path d="M130.68 224.612C130.68 242.24 112.108 255.837 91.806 255.837C71.5043 255.837 53 242.24 53 224.612C53 206.984 71.5043 192 91.806 192C112.108 192 130.68 206.984 130.68 224.612Z" fill="#A07B60"/>
<path d="M91.5523 217.837L102.649 201.184C102.649 201.184 99.1816 194.939 91.5523 194.939C83.923 194.939 80.4551 201.184 80.4551 201.184L91.5523 217.837Z" fill="#1B1B1B"/>
<path d="M104.73 201.878C115.827 201.878 131.78 201.878 142.183 206.735M104.73 207.429C104.73 207.429 126.231 205.347 140.102 210.898M104.037 210.898C104.037 210.898 119.989 207.183 138.022 215.755" stroke="#1B1B1B" stroke-linecap="square"/>
<path d="M79.068 201.878C67.9708 201.878 52.0186 201.878 41.615 206.735M79.068 207.429C79.068 207.429 57.5672 205.347 43.6957 210.898M79.7615 210.898C79.7615 210.898 63.8093 207.183 45.7764 215.755" stroke="#1B1B1B" stroke-linecap="square"/>
<path d="M77.6808 149.143L87.3908 138.735L90.1651 149.143L103.343 133.878L106.117 149.837" stroke="#1B1B1B" stroke-width="2" stroke-linecap="square"/>
<path d="M8.73225 128.514C13.5549 123.812 21.9965 124.648 27.5871 130.382C28.2423 131.054 28.8293 131.763 29.3473 132.5C21.4662 137.306 17.6629 140.8 13 149.785C11.9855 149.12 11.0175 148.328 10.1226 147.41C4.53202 141.676 3.90956 133.216 8.73225 128.514Z" fill="#A07B60"/>
<path d="M174.065 129.837C167.241 123.008 159.916 126.315 153.822 132.405C153.108 133.118 152.463 133.869 151.887 134.647C159.816 139.445 163.582 142.979 167.958 152.194C169.044 151.479 170.089 150.633 171.065 149.658C177.158 143.568 178.827 134.601 174.065 129.837Z" fill="#A07B60"/>
<path d="M171.447 132.304C173.378 135.604 174.724 138.146 175.434 140.967C176.159 143.85 176.248 147.163 175.34 151.983C168.147 157.009 162.041 159.939 155.208 161.887C148.178 163.892 140.323 164.879 129.57 165.979C129.556 165.976 129.541 165.973 129.526 165.97C129.301 165.925 128.969 165.859 128.544 165.775C127.694 165.607 126.47 165.368 124.972 165.082C121.975 164.51 117.878 163.749 113.477 162.996C104.767 161.505 94.5781 159.988 89.5215 160.112C84.5311 160.234 74.4701 161.735 65.8096 163.171C61.4457 163.894 57.3849 164.609 54.416 165.144C52.9313 165.412 51.7186 165.634 50.877 165.79C50.4564 165.867 50.1284 165.929 49.9053 165.97H49.9033C28.5389 162.582 19.9847 161.24 6.4834 151.798C4.31048 147.477 4.02289 141.532 9.10449 131.376L171.447 132.304Z" fill="#F4C02F" stroke="#482323" stroke-width="4"/>
<path d="M90.4654 70.1228C110.574 69.2041 129.934 76.2139 144.488 87.49C158.987 98.7231 168.53 114.032 169.511 129.707C169.413 130.042 169.1 130.561 168.207 131.22C167.188 131.971 165.638 132.734 163.529 133.47C159.324 134.94 153.323 136.159 146.022 137.117C131.451 139.029 112.1 139.853 92.5289 139.735C72.9636 139.618 53.2567 138.56 37.9849 136.731C30.3411 135.816 23.866 134.714 19.0943 133.458C16.7043 132.829 14.8047 132.177 13.4214 131.521C12.4603 131.066 11.8785 130.665 11.5445 130.366C12.8264 114.837 22.2145 99.4479 36.4205 88.0584C50.844 76.4944 70.0608 69.2048 90.2838 70.1228L90.3746 70.1267L90.4654 70.1228Z" fill="#F0B52D" stroke="#482323" stroke-width="4"/>
<path d="M90.3745 64C102.73 64.0001 112.747 74.0165 112.747 86.3721V131.618C112.746 136.036 109.165 139.618 104.747 139.618H76.0024C71.5843 139.618 68.0026 136.036 68.0024 131.618V86.3721C68.0024 74.0164 78.0188 64 90.3745 64Z" fill="#EAC045" stroke="#482323" stroke-width="4"/>
</svg>
